<svg width="20" height="20" viewBox="0 0 20 20" fill="none" xmlns="http://www.w3.org/2000/svg">
<g clip-path="url(#clip0_103_6355)">
<path d="M10 20C15.5228 20 20 15.5228 20 10C20 4.47715 15.5228 0 10 0C4.47715 0 0 4.47715 0 10C0 15.5228 4.47715 20 10 20Z" fill="#3C5A9A"/>
<path d="M13.2512 3.06958H11.0359C9.7213 3.06958 8.2591 3.62248 8.2591 5.52805C8.26551 6.19202 8.2591 6.82792 8.2591 7.54357H6.73828V9.96364H8.30616V16.9306H11.1872V9.91766H13.0888L13.2609 7.53678H11.1376C11.1376 7.53678 11.1423 6.47766 11.1376 6.17009C11.1376 5.41705 11.9211 5.46017 11.9683 5.46017C12.3411 5.46017 13.0661 5.46126 13.2522 5.46017V3.06958H13.2512Z" fill="white"/>
</g>
<defs>
<clipPath id="clip0_103_6355">
<rect width="20" height="20" fill="white"/>
</clipPath>
</defs>
</svg>
