<svg width="21" height="22" viewBox="0 0 21 22" fill="none" xmlns="http://www.w3.org/2000/svg">
<path fill-rule="evenodd" clip-rule="evenodd" d="M2.625 10.3796C2.625 12.7273 3.8675 14.794 5.77412 16.0969C5.77325 16.845 5.775 17.853 5.775 18.9109L8.86463 17.3823C9.39313 17.4838 9.93912 17.5389 10.5 17.5389C14.833 17.5389 18.375 14.3513 18.375 10.3796C18.375 6.40802 14.833 3.2204 10.5 3.2204C6.167 3.2204 2.625 6.40802 2.625 10.3796Z" stroke="#171717" stroke-width="1.5" stroke-linecap="round" stroke-linejoin="round"/>
<path d="M10.4116 11.287V11.1059C10.4116 10.5127 10.7782 10.1915 11.1457 9.94478C11.5045 9.70328 11.8641 9.38828 11.8641 8.80728C11.8641 8.0049 11.214 7.35565 10.4125 7.35565C9.61096 7.35565 8.95996 8.00403 8.95996 8.8064" stroke="#171717" stroke-width="1.5" stroke-linecap="round" stroke-linejoin="round"/>
<path d="M10.4108 13.3337C10.3381 13.3337 10.2795 13.3923 10.2804 13.4649C10.2804 13.5375 10.339 13.5962 10.4116 13.5962C10.4843 13.5962 10.5429 13.5375 10.5429 13.4649C10.5429 13.3923 10.4851 13.3337 10.4108 13.3337" stroke="#171717" stroke-width="1.5" stroke-linecap="round" stroke-linejoin="round"/>
</svg>
