<svg width="24" height="24" viewBox="0 0 24 24" fill="none" xmlns="http://www.w3.org/2000/svg">
<path d="M12 8V8.80786" stroke="#323232" stroke-width="1.5" stroke-linecap="round" stroke-linejoin="round"/>
<path d="M10 10.4236C10.1168 9.43105 11.005 8.71351 12 8.8079" stroke="#323232" stroke-width="1.5" stroke-linecap="round" stroke-linejoin="round"/>
<path d="M12 16V15.1921" stroke="#323232" stroke-width="1.5" stroke-linecap="round" stroke-linejoin="round"/>
<path d="M14 13.5764C13.8832 14.569 12.995 15.2865 12 15.1921" stroke="#323232" stroke-width="1.5" stroke-linecap="round" stroke-linejoin="round"/>
<path d="M13.9491 10.071C13.6482 9.26692 12.8569 8.75409 12 8.8078" stroke="#323232" stroke-width="1.5" stroke-linecap="round" stroke-linejoin="round"/>
<path d="M10.0508 13.929C10.3517 14.7331 11.143 15.2459 11.9999 15.1922" stroke="#323232" stroke-width="1.5" stroke-linecap="round" stroke-linejoin="round"/>
<path d="M10 10.4236V10.4236C10 11.1076 10.4828 11.6966 11.1536 11.8307L12.8464 12.1693C13.5172 12.3034 14 12.8924 14 13.5764V13.5764" stroke="#323232" stroke-width="1.5" stroke-linecap="round" stroke-linejoin="round"/>
<path fill-rule="evenodd" clip-rule="evenodd" d="M20 13.0208V6.56938C19.9927 6.05853 19.6058 5.63323 19.0979 5.5777C16.976 5.41645 14.9416 4.66412 13.2254 3.40593C12.4981 2.86469 11.5019 2.86469 10.7746 3.40593C9.05839 4.66412 7.02404 5.41646 4.90212 5.5777C4.39424 5.63322 4.00735 6.05852 4 6.56938V13.0208C4 16.7918 8.65012 19.6027 10.8636 20.7274C11.579 21.0915 12.4254 21.0908 13.1401 20.7255C15.3552 19.5996 20 16.7956 20 13.0208Z" stroke="#323232" stroke-width="1.5" stroke-linecap="round" stroke-linejoin="round"/>
</svg>
