<svg width="20" height="20" viewBox="0 0 20 20" fill="none" xmlns="http://www.w3.org/2000/svg">
<g clip-path="url(#clip0_103_2327)">
<g clip-path="url(#clip1_103_2327)">
<path d="M19.5395 8.32789C19.6271 8.32789 19.6981 8.39887 19.6981 8.48643V10.151C19.6981 10.7741 19.6402 11.3832 19.5292 11.9742C18.6706 16.5643 14.6267 20.0332 9.77958 19.9998C4.34072 19.9623 -0.0120171 15.5678 2.49256e-05 10.1288C0.01199 4.69967 4.41705 0.302002 9.84902 0.302002C12.5103 0.302002 14.9249 1.35777 16.6977 3.07273C16.7617 3.13464 16.7634 3.23667 16.7004 3.29961L14.3454 5.65457C14.2848 5.7152 14.1869 5.71678 14.1247 5.65764C13.0121 4.59853 11.5066 3.9483 9.84902 3.9483C6.42606 3.9483 3.66967 6.6851 3.64644 10.108C3.62308 13.5533 6.40913 16.3537 9.84902 16.3537C12.64 16.3537 15.0006 14.51 15.7791 11.9742H10.0076C9.92 11.9742 9.84902 11.9032 9.84902 11.8156V8.48639C9.84902 8.39883 9.92 8.32785 10.0076 8.32785H19.5395V8.32789Z" fill="#2196F3"/>
<path d="M19.5395 8.32788H18.3505C18.4381 8.32788 18.5091 8.39886 18.5091 8.48643V10.151C18.5091 10.7741 18.4512 11.3832 18.3402 11.9742C17.5211 16.3532 13.8029 19.7117 9.25391 19.9823C9.42796 19.9926 9.60316 19.9986 9.7796 19.9998C14.6268 20.0332 18.6706 16.5643 19.5292 11.9742C19.6402 11.3832 19.6981 10.7741 19.6981 10.151V8.48639C19.6981 8.39886 19.6271 8.32788 19.5395 8.32788Z" fill="#1E88E5"/>
<path d="M4.21579 7.55343L1.22461 5.39218C2.90272 2.35703 6.13643 0.302002 9.84975 0.302002C12.511 0.302002 14.9257 1.35777 16.6984 3.07274C16.7625 3.13464 16.7641 3.23667 16.7011 3.29961L14.3462 5.65457C14.2857 5.71509 14.1877 5.71697 14.1257 5.65795C13.0131 4.59864 11.5075 3.94834 9.84975 3.94834C7.35163 3.94834 5.19831 5.42508 4.21579 7.55343Z" fill="#F44336"/>
<path d="M3.35156 6.92943L4.21508 7.55334C5.11188 5.61069 6.98428 4.21159 9.20377 3.9821C9.22047 3.98029 9.23651 3.9781 9.25352 3.97648C9.05819 3.95794 8.86025 3.94824 8.66004 3.94824C6.40334 3.94824 4.43661 5.13794 3.35156 6.92943Z" fill="#E53935"/>
<path d="M15.5082 3.07274C15.5722 3.13464 15.5739 3.23667 15.5109 3.29965L13.5994 5.21109C13.7826 5.35036 13.9579 5.49933 14.1242 5.65768C14.1863 5.71682 14.2843 5.71524 14.3449 5.65461L16.6999 3.29965C16.7629 3.23667 16.7612 3.13468 16.6972 3.07274C14.9244 1.35777 12.5098 0.302002 9.8485 0.302002C9.64879 0.302002 9.45066 0.308658 9.25391 0.320392C11.6792 0.464857 13.8684 1.48643 15.5082 3.07274Z" fill="#E53935"/>
<path d="M17.073 16.8445C15.2744 18.7854 12.703 20.0002 9.84815 20.0002C5.99217 20.0002 2.65381 17.7843 1.03711 14.5561L4.09089 12.4634C5.00727 14.7435 7.23985 16.3539 9.84815 16.3539C11.485 16.3539 12.9737 15.7197 14.0818 14.6837L17.073 16.8445Z" fill="#4CAF50"/>
<path d="M4.0919 12.4634L3.19141 13.0804C4.23729 15.0289 6.29401 16.3538 8.66012 16.3538C8.86022 16.3538 9.05801 16.344 9.25325 16.3255C6.90453 16.1016 4.93761 14.5678 4.0919 12.4634Z" fill="#43A047"/>
<path d="M9.84888 20.0001C12.7037 20.0001 15.2752 18.7853 17.0738 16.8445L16.3411 16.3152C14.6523 18.417 12.1189 19.8112 9.25586 19.9822C9.45207 19.9939 9.64974 20.0001 9.84888 20.0001Z" fill="#43A047"/>
<path d="M3.64634 10.1509C3.64634 10.9682 3.80446 11.7486 4.09181 12.4632L1.038 14.5558C0.373763 13.2305 0 11.7343 0 10.1509C0 8.4249 0.443899 6.80266 1.2239 5.39209L4.21508 7.55334C3.85005 8.34322 3.64634 9.22352 3.64634 10.1509Z" fill="#FFC107"/>
<path d="M3.19105 13.0803L4.09154 12.4632C3.80419 11.7486 3.64606 10.9682 3.64606 10.151C3.64606 9.22354 3.84978 8.34324 4.21481 7.55336L3.35129 6.92944C2.79054 7.85529 2.4651 8.94173 2.45718 10.108C2.44987 11.1834 2.71637 12.1961 3.19105 13.0803Z" fill="#FFB300"/>
</g>
</g>
<defs>
<clipPath id="clip0_103_2327">
<rect width="20" height="20" fill="white"/>
</clipPath>
<clipPath id="clip1_103_2327">
<rect width="20" height="20" fill="white" transform="translate(0 0.302002)"/>
</clipPath>
</defs>
</svg>
