<svg width="24" height="24" viewBox="0 0 24 24" fill="none" xmlns="http://www.w3.org/2000/svg">
<path d="M12 20.0033C14.9314 20.0035 17.6284 18.4012 19.0299 15.8265" stroke="#323232" stroke-width="1.5" stroke-linecap="round" stroke-linejoin="round"/>
<path d="M20.0033 12C20.0033 7.57992 16.4201 3.9967 12 3.9967" stroke="#323232" stroke-width="1.5" stroke-linecap="round" stroke-linejoin="round"/>
<path d="M11.9997 3.9967C9.06827 3.99646 6.3713 5.59883 4.96973 8.17344" stroke="#323232" stroke-width="1.5" stroke-linecap="round" stroke-linejoin="round"/>
<path d="M3.99707 12C3.99707 16.4201 7.58028 20.0033 12.0004 20.0033" stroke="#323232" stroke-width="1.5" stroke-linecap="round" stroke-linejoin="round"/>
<path d="M4.96973 8.17335C6.7192 4.95833 10.4268 3.33982 13.9739 4.2427C17.521 5.14558 20.0035 8.33975 20.003 11.9999" stroke="#323232" stroke-width="1.5" stroke-linecap="round" stroke-linejoin="round"/>
<path d="M3.99707 12C3.99651 15.6602 6.47909 18.8544 10.0262 19.7572C13.5733 20.6601 17.2809 19.0416 19.0303 15.8266" stroke="#323232" stroke-width="1.5" stroke-linecap="round" stroke-linejoin="round"/>
<path d="M8.04526 8.17346H4.50879V4.63599" stroke="#323232" stroke-width="1.5" stroke-linecap="round" stroke-linejoin="round"/>
<path d="M15.9551 15.8265H19.4916V19.364" stroke="#323232" stroke-width="1.5" stroke-linecap="round" stroke-linejoin="round"/>
</svg>
