<svg width="16" height="16" viewBox="0 0 16 16" fill="none" xmlns="http://www.w3.org/2000/svg">
<path d="M14 4.48669C13.9867 4.48669 13.9667 4.48669 13.9467 4.48669C10.42 4.13336 6.9 4.00002 3.41333 4.35336L2.05333 4.48669C1.77333 4.51336 1.52667 4.31336 1.5 4.03336C1.47333 3.75336 1.67333 3.51336 1.94667 3.48669L3.30667 3.35336C6.85333 2.99336 10.4467 3.13336 14.0467 3.48669C14.32 3.51336 14.52 3.76002 14.4933 4.03336C14.4733 4.29336 14.2533 4.48669 14 4.48669Z" fill="#292D32"/>
<path d="M5.66667 3.81337C5.64 3.81337 5.61333 3.81337 5.58 3.80671C5.31333 3.76004 5.12667 3.50004 5.17333 3.23337L5.32 2.36004C5.42667 1.72004 5.57333 0.833374 7.12667 0.833374H8.87333C10.4333 0.833374 10.58 1.75337 10.68 2.36671L10.8267 3.23337C10.8733 3.50671 10.6867 3.76671 10.42 3.80671C10.1467 3.85337 9.88667 3.66671 9.84667 3.40004L9.7 2.53337C9.60667 1.95337 9.58667 1.84004 8.88 1.84004H7.13333C6.42667 1.84004 6.41333 1.93337 6.31333 2.52671L6.16 3.39337C6.12 3.64004 5.90667 3.81337 5.66667 3.81337Z" fill="#292D32"/>
<path d="M10.14 15.1667H5.86C3.53333 15.1667 3.44 13.88 3.36667 12.84L2.93333 6.12672C2.91333 5.85338 3.12667 5.61338 3.4 5.59338C3.68 5.58005 3.91333 5.78672 3.93333 6.06005L4.36667 12.7734C4.44 13.7867 4.46667 14.1667 5.86 14.1667H10.14C11.54 14.1667 11.5667 13.7867 11.6333 12.7734L12.0667 6.06005C12.0867 5.78672 12.3267 5.58005 12.6 5.59338C12.8733 5.61338 13.0867 5.84672 13.0667 6.12672L12.6333 12.84C12.56 13.88 12.4667 15.1667 10.14 15.1667Z" fill="#292D32"/>
<path d="M9.10667 11.5H6.88667C6.61333 11.5 6.38667 11.2733 6.38667 11C6.38667 10.7267 6.61333 10.5 6.88667 10.5H9.10667C9.38 10.5 9.60667 10.7267 9.60667 11C9.60667 11.2733 9.38 11.5 9.10667 11.5Z" fill="#292D32"/>
<path d="M9.66667 8.83337H6.33333C6.06 8.83337 5.83333 8.60671 5.83333 8.33337C5.83333 8.06004 6.06 7.83337 6.33333 7.83337H9.66667C9.94 7.83337 10.1667 8.06004 10.1667 8.33337C10.1667 8.60671 9.94 8.83337 9.66667 8.83337Z" fill="#292D32"/>
</svg>
