<svg width="24" height="24" viewBox="0 0 24 24" fill="none" xmlns="http://www.w3.org/2000/svg">
<path d="M16.0022 18.5026H8.16895" stroke="#171717" stroke-width="1.5" stroke-linecap="round" stroke-linejoin="round"/>
<path d="M18.9986 18.5026H21.0035C21.556 18.5026 22.0039 18.0547 22.0039 17.5022V11.3851C22.0039 11.1306 21.9553 10.8786 21.8608 10.6424L20.5056 7.25502C20.2017 6.49547 19.466 5.99744 18.6479 5.99744H15.001" stroke="#171717" stroke-width="1.5" stroke-linecap="round" stroke-linejoin="round"/>
<path d="M22.0046 13.0004H18.5031C18.2269 13.0004 18.0029 12.7765 18.0029 12.5002V8.99878H21.2043" stroke="#171717" stroke-width="1.5" stroke-linecap="round" stroke-linejoin="round"/>
<path d="M18.5598 17.4456C18.989 17.8748 19.1174 18.5202 18.8851 19.081C18.6529 19.6417 18.1057 20.0074 17.4988 20.0074C16.8918 20.0074 16.3446 19.6418 16.1123 19.0811C15.8801 18.5204 16.0084 17.8749 16.4376 17.4457L16.4377 17.4456C16.7191 17.1642 17.1007 17.0061 17.4987 17.0061C17.8967 17.0061 18.2784 17.1642 18.5598 17.4456V17.4456" stroke="#171717" stroke-width="1.5" stroke-linecap="round" stroke-linejoin="round"/>
<path d="M7.55488 17.4457C7.98408 17.8749 8.1125 18.5203 7.88026 19.0811C7.64802 19.6418 7.10086 20.0075 6.49391 20.0075C5.88696 20.0075 5.33976 19.6419 5.10747 19.0812C4.87517 18.5205 5.00352 17.875 5.43268 17.4458L5.43298 17.4455C5.71437 17.1641 6.09602 17.0061 6.49396 17.0061C6.8919 17.0061 7.27352 17.1643 7.55486 17.4457V17.4457" stroke="#171717" stroke-width="1.5" stroke-linecap="round" stroke-linejoin="round"/>
<path d="M4.99734 18.5027H2.99651C2.444 18.5027 1.99609 18.0548 1.99609 17.5023V4.99712C1.99609 4.44461 2.444 3.9967 2.99651 3.9967H14.0011C14.5536 3.9967 15.0015 4.44461 15.0015 4.99712V14.0009" stroke="#171717" stroke-width="1.5" stroke-linecap="round" stroke-linejoin="round"/>
<path d="M15.0015 14.0008H1.99609" stroke="#171717" stroke-width="1.5" stroke-linecap="round" stroke-linejoin="round"/>
</svg>
